<?xml version="1.0" encoding="UTF-8"?> <svg xmlns="http://www.w3.org/2000/svg" width="1080" height="1080" viewBox="0 0 1080 1080" fill="none"> <g clip-path="url(#clip0_37_138)"> <path d="M266.327 871.541V827.341C266.327 810.434 256.035 799.362 238.367 799.362C229.532 799.362 219.926 802.28 213.322 811.893C208.176 803.825 200.8 799.362 189.736 799.362C182.36 799.362 174.984 801.594 169.151 809.661V800.821H153.713V871.541H169.151V832.491C169.151 819.96 175.755 814.038 186.048 814.038C196.34 814.038 201.486 820.647 201.486 832.491V871.541H216.924V832.491C216.924 819.96 224.3 814.038 233.821 814.038C244.113 814.038 249.259 820.647 249.259 832.491V871.541H266.327ZM495.329 800.821H470.285V779.451H454.847V800.821H440.866V814.811H454.847V847.253C454.847 863.473 461.451 873 479.119 873C485.723 873 493.099 870.769 498.245 867.851L493.785 854.548C489.325 857.466 484.179 858.238 480.491 858.238C473.115 858.238 470.199 853.775 470.199 846.48V814.811H495.244V800.821H495.329ZM626.384 799.277C617.55 799.277 611.632 803.739 607.944 809.576V800.736H592.505V871.455H607.944V831.632C607.944 819.874 613.09 813.18 622.696 813.18C625.612 813.18 629.3 813.953 632.302 814.639L636.762 799.877C633.674 799.277 629.3 799.277 626.384 799.277ZM428.344 806.658C420.968 801.508 410.676 799.277 399.612 799.277C381.943 799.277 370.193 808.117 370.193 822.106C370.193 833.864 379.027 840.558 394.465 842.704L401.842 843.476C409.904 844.935 414.364 847.167 414.364 850.857C414.364 856.007 408.446 859.697 398.153 859.697C387.861 859.697 379.713 856.007 374.567 852.316L367.191 864.074C375.253 869.996 386.317 872.914 397.382 872.914C417.966 872.914 429.802 863.302 429.802 850.085C429.802 837.554 420.196 830.946 405.53 828.714L398.153 827.942C391.549 827.17 386.403 825.711 386.403 821.334C386.403 816.184 391.549 813.266 399.697 813.266C408.531 813.266 417.366 816.956 421.826 819.188L428.344 806.658ZM839.09 799.277C830.256 799.277 824.338 803.739 820.65 809.576V800.736H805.211V871.455H820.65V831.632C820.65 819.874 825.796 813.18 835.402 813.18C838.318 813.18 842.006 813.953 845.008 814.639L849.468 800.049C846.466 799.277 842.092 799.277 839.09 799.277ZM641.822 836.181C641.822 857.552 656.574 873 679.389 873C689.681 873 697.057 870.769 704.433 864.932L697.057 852.402C691.139 856.865 685.307 859.011 678.617 859.011C666.095 859.011 657.26 850.171 657.26 836.181C657.26 822.878 666.095 814.038 678.617 813.352C685.221 813.352 691.139 815.583 697.057 819.96L704.433 807.43C697.057 801.508 689.681 799.362 679.389 799.362C656.574 799.277 641.822 814.811 641.822 836.181ZM784.627 836.181V800.821H769.189V809.661C764.042 803.053 756.666 799.362 747.06 799.362C727.162 799.362 711.724 814.811 711.724 836.181C711.724 857.552 727.162 873 747.06 873C757.352 873 764.729 869.31 769.189 862.701V871.541H784.627V836.181ZM727.934 836.181C727.934 823.651 735.996 813.352 749.29 813.352C761.812 813.352 770.647 822.964 770.647 836.181C770.647 848.712 761.812 859.011 749.29 859.011C736.082 858.238 727.934 848.626 727.934 836.181ZM543.188 799.277C522.604 799.277 507.852 814.038 507.852 836.095C507.852 858.238 522.604 872.914 543.96 872.914C554.252 872.914 564.545 869.996 572.693 863.302L565.317 852.23C559.398 856.693 552.022 859.611 544.732 859.611C535.126 859.611 525.606 855.148 523.376 842.704H575.609C575.609 840.472 575.609 839.013 575.609 836.782C576.295 814.038 563.001 799.277 543.188 799.277ZM543.188 812.579C552.794 812.579 559.398 818.501 560.857 829.487H524.062C525.52 819.96 532.124 812.579 543.188 812.579ZM926.745 836.181V772.843H911.307V809.661C906.161 803.053 898.785 799.362 889.179 799.362C869.28 799.362 853.842 814.811 853.842 836.181C853.842 857.552 869.28 873 889.179 873C899.471 873 906.847 869.31 911.307 862.701V871.541H926.745V836.181ZM870.052 836.181C870.052 823.651 878.115 813.352 891.409 813.352C903.931 813.352 912.765 822.964 912.765 836.181C912.765 848.712 903.931 859.011 891.409 859.011C878.115 858.238 870.052 848.626 870.052 836.181ZM353.211 836.181V800.821H337.772V809.661C332.626 803.053 325.25 799.362 315.644 799.362C295.746 799.362 280.307 814.811 280.307 836.181C280.307 857.552 295.746 873 315.644 873C325.936 873 333.312 869.31 337.772 862.701V871.541H353.211V836.181ZM295.831 836.181C295.831 823.651 303.894 813.352 317.188 813.352C329.71 813.352 338.544 822.964 338.544 836.181C338.544 848.712 329.71 859.011 317.188 859.011C303.894 858.238 295.831 848.626 295.831 836.181Z" fill="black"></path> <path d="M655.116 263.73H423.197V680.667H655.116V263.73Z" fill="#FF5A00"></path> <path d="M438.636 472.198C438.636 387.489 478.433 312.307 539.5 263.73C494.557 228.37 437.864 207 376.025 207C229.532 207 111 325.61 111 472.198C111 618.787 229.532 737.397 376.025 737.397C437.864 737.397 494.557 716.027 539.5 680.667C478.347 632.777 438.636 556.907 438.636 472.198Z" fill="#EB001B"></path> <path d="M968 472.198C968 618.787 849.468 737.397 702.975 737.397C641.136 737.397 584.443 716.027 539.5 680.667C601.339 632.004 640.364 556.907 640.364 472.198C640.364 387.489 600.567 312.307 539.5 263.73C584.357 228.37 641.05 207 702.889 207C849.468 207 968 326.382 968 472.198Z" fill="#F79E1B"></path> </g> <defs> <clipPath id="clip0_37_138"> <rect width="857" height="666" fill="white" transform="translate(111 207)"></rect> </clipPath> </defs> </svg> 