<?xml version="1.0" encoding="UTF-8"?> <svg xmlns="http://www.w3.org/2000/svg" width="1080" height="1080" viewBox="0 0 1080 1080" fill="none"> <g clip-path="url(#clip0_37_130)"> <path d="M473.353 696.984H392.342L443.012 383.679H524.018L473.353 696.984Z" fill="#00579F"></path> <path d="M767.024 391.339C751.045 384.999 725.701 378 694.363 378C614.363 378 558.027 420.66 557.681 481.652C557.017 526.652 598.016 551.646 628.68 566.65C660.022 581.982 670.676 591.989 670.676 605.656C670.358 626.645 645.35 636.32 622.027 636.32C589.683 636.32 572.353 631.332 546.017 619.654L535.35 614.649L524.014 684.979C543.014 693.635 578.019 701.316 614.363 701.653C699.365 701.653 754.704 659.653 755.36 594.656C755.683 558.99 734.034 531.662 687.36 509.331C659.026 494.995 641.674 485.329 641.674 470.661C642.006 457.327 656.35 443.67 688.334 443.67C714.67 443.001 734.021 449.331 748.679 455.666L756.006 458.993L767.024 391.339Z" fill="#00579F"></path> <path d="M874.694 585.991C881.366 567.992 907.038 498.331 907.038 498.331C906.701 499 913.696 480 917.696 468.336L923.358 495.332C923.358 495.332 938.698 570.327 942.03 585.991C929.369 585.991 890.695 585.991 874.694 585.991ZM974.692 383.679H912.03C892.707 383.679 878.026 389.341 869.688 409.674L749.357 696.979H834.36C834.36 696.979 848.354 658.31 851.362 649.982C860.687 649.982 943.376 649.982 955.373 649.982C957.699 660.981 965.039 696.979 965.039 696.979H1040.05L974.692 383.679Z" fill="#00579F"></path> <path d="M324.678 383.679L245.342 597.323L236.673 553.993C222.005 503.997 176.004 449.677 124.67 422.667L197.339 696.652H283.006L410.34 383.679H324.678Z" fill="#00579F"></path> <path d="M171.672 383.679H41.3334L40 390.009C141.672 416.009 209.008 478.68 236.673 554.007L208.339 410.015C203.674 390.005 189.338 384.339 171.672 383.679Z" fill="#FAA61A"></path> </g> <defs> <clipPath id="clip0_37_130"> <rect width="1000.05" height="323.653" fill="white" transform="translate(40 378)"></rect> </clipPath> </defs> </svg> 